<svg width="753" height="398" viewBox="0 0 753 398" fill="none" xmlns="http://www.w3.org/2000/svg">
<path d="M143.613 111.085C143.613 96.5796 148.808 84.1322 159.197 73.743C169.586 63.3538 182.034 58.1592 196.54 58.1592C211.045 58.1592 223.493 63.3538 233.882 73.743C244.271 84.1322 249.466 96.5796 249.466 111.085C249.466 125.591 244.271 138.038 233.882 148.428C223.493 158.817 211.045 164.011 196.54 164.011C186.934 164.011 178.113 161.561 170.077 156.661C162.04 151.956 155.571 145.585 150.67 137.548C145.966 129.707 143.613 120.886 143.613 111.085ZM478.812 111.085C478.812 96.5796 484.007 84.1322 494.396 73.743C504.785 63.3538 517.233 58.1592 531.738 58.1592C546.244 58.1592 558.692 63.3538 569.081 73.743C579.47 84.1322 584.665 96.5796 584.665 111.085C584.665 125.591 579.47 138.038 569.081 148.428C558.692 158.817 546.244 164.011 531.738 164.011C522.133 164.011 513.312 161.561 505.275 156.661C497.238 151.956 490.77 145.585 485.869 137.548C481.165 129.707 478.812 120.886 478.812 111.085Z" fill="black" fill-opacity="0.1"/>
<path d="M376.363 224.21C450.46 224.21 518.578 233.815 580.717 253.026C643.052 272.432 700.389 300.071 752.727 335.943V397.102C733.321 382.989 709.406 369.757 680.983 357.408C652.756 345.254 621.686 334.571 587.774 325.358C554.058 316.145 519.166 308.892 483.098 303.599C447.03 298.503 411.452 295.955 376.363 295.955C329.71 295.955 282.371 300.463 234.345 309.48C186.319 318.497 141.724 330.651 100.559 345.94C59.3952 361.23 25.8752 378.284 0 397.102V335.943C52.3382 300.071 109.577 272.432 171.716 253.026C234.051 233.815 302.267 224.21 376.363 224.21Z" fill="black" fill-opacity="0.1"/>
<path d="M55.3181 35.5C157.718 50.7 221.651 25.5 240.818 11" stroke="black" stroke-opacity="0.1" stroke-width="25"/>
<path d="M661.318 35.3236C558.642 50.4142 494.536 25.3956 475.318 11" stroke="black" stroke-opacity="0.1" stroke-width="25"/>
</svg>
